<svg width="468" height="468" xmlns="http://www.w3.org/2000/svg" xmlns:xlink="http://www.w3.org/1999/xlink" xml:space="preserve" overflow="hidden"><defs><clipPath id="clip0"><rect x="0" y="0" width="468" height="468"/></clipPath><clipPath id="clip1"><path d="M468 234C468 363.235 363.234 468 234 468 104.765 468-0.000225067 363.235-0.000225067 234-0.000225067 104.765 104.765-3.05176e-05 234-3.05176e-05 363.234-3.05176e-05 468 104.765 468 234Z" fill-rule="nonzero" clip-rule="nonzero"/></clipPath></defs><g clip-path="url(#clip0)"><path d="M468 234C468 363.235 363.235 468 234 468 104.765 468 0 363.235 0 234-6.65068e-14 104.765 104.765-3.32534e-14 234-3.32534e-14 363.235-9.97602e-14 468 104.765 468 234Z" fill="#0053A0" fill-rule="nonzero" fill-opacity="1"/><g clip-path="url(#clip1)"><path d="M210.678 370.003C188.638 365.643 169.136 352.932 156.25 334.528 155.187 333.009 154.168 331.46 153.266 329.894L100.274 254.21C72.6046 214.667 82.2296 160.181 121.772 132.511 161.315 104.842 215.801 114.467 243.471 154.009L249.544 162.688 258.222 156.615C297.765 128.945 352.251 138.57 379.921 178.113 407.591 217.656 397.966 272.142 358.423 299.812L282.662 352.809C281.198 353.919 279.739 355.005 278.284 356.066 259.298 369.345 235.804 374.514 212.998 370.431Z" stroke="#FFFFFF" stroke-width="37.4494" stroke-linecap="butt" stroke-linejoin="miter" stroke-miterlimit="4" stroke-opacity="1" fill="#BD2D2D" fill-rule="nonzero" fill-opacity="1"/></g></g></svg>