<?xml version="1.0" encoding="UTF-8" standalone="no"?>
<!-- Created with Inkscape (http://www.inkscape.org/) -->

<svg
   version="1.1"
   id="svg2"
   xml:space="preserve"
   width="286.66666"
   height="286.66666"
   viewBox="0 0 286.66666 286.66666"
   sodipodi:docname="heart2 (1).ai"
   xmlns:inkscape="http://www.inkscape.org/namespaces/inkscape"
   xmlns:sodipodi="http://sodipodi.sourceforge.net/DTD/sodipodi-0.dtd"
   xmlns="http://www.w3.org/2000/svg"
   xmlns:svg="http://www.w3.org/2000/svg"><defs
     id="defs6"><linearGradient
       x1="0"
       y1="0"
       x2="1"
       y2="0"
       gradientUnits="userSpaceOnUse"
       gradientTransform="matrix(85.839416,134.54015,134.54015,-85.839416,75.500755,54.180077)"
       spreadMethod="pad"
       id="linearGradient30"><stop
         style="stop-opacity:1;stop-color:#f80241"
         offset="0"
         id="stop22" /><stop
         style="stop-opacity:1;stop-color:#f80241"
         offset="0.00000082"
         id="stop24" /><stop
         style="stop-opacity:1;stop-color:#ff6173"
         offset="0.61477205"
         id="stop26" /><stop
         style="stop-opacity:1;stop-color:#ff6173"
         offset="1"
         id="stop28" /></linearGradient><clipPath
       clipPathUnits="userSpaceOnUse"
       id="clipPath40"><path
         d="m 107.226,38.127 c -2.74,-2.731 -6.311,-4.12 -9.911,-4.16 v 0 l 7.491,-7.47 c 5.58,-5.57 14.62,-5.57 20.2,0 v 0 l 14.969,14.909 c -5.58,-5.569 -14.799,-5.519 -20.39,0.051 v 0 l -4.51,4.489 z"
         id="path38" /></clipPath><linearGradient
       x1="0"
       y1="0"
       x2="1"
       y2="0"
       gradientUnits="userSpaceOnUse"
       gradientTransform="matrix(-2.7153285,-11.649634,-11.649634,2.7153285,119.5751,41.675247)"
       spreadMethod="pad"
       id="linearGradient58"><stop
         style="stop-opacity:0;stop-color:#ffffff"
         offset="0"
         id="stop50" /><stop
         style="stop-opacity:0;stop-color:#ffffff"
         offset="0.13378"
         id="stop52" /><stop
         style="stop-opacity:0;stop-color:#ffffff"
         offset="0.27736715"
         id="stop54" /><stop
         style="stop-opacity:1;stop-color:#ffffff"
         offset="1"
         id="stop56" /></linearGradient><mask
       maskUnits="userSpaceOnUse"
       x="0"
       y="0"
       width="1"
       height="1"
       id="mask60"><g
         id="g70"><g
           id="g68"><g
             id="g66"><g
               id="g64"><path
                 d="M -32768,32767 H 32767 V -32768 H -32768 Z"
                 style="fill:url(#linearGradient58);stroke:none"
                 id="path62" /></g></g></g></g></mask><linearGradient
       x1="0"
       y1="0"
       x2="1"
       y2="0"
       gradientUnits="userSpaceOnUse"
       gradientTransform="matrix(-2.7153285,-11.649634,-11.649634,2.7153285,119.5751,41.675247)"
       spreadMethod="pad"
       id="linearGradient84"><stop
         style="stop-opacity:1;stop-color:#f80241"
         offset="0"
         id="stop76" /><stop
         style="stop-opacity:1;stop-color:#f80241"
         offset="0.13378"
         id="stop78" /><stop
         style="stop-opacity:1;stop-color:#f80241"
         offset="0.27736715"
         id="stop80" /><stop
         style="stop-opacity:1;stop-color:#94072c"
         offset="1"
         id="stop82" /></linearGradient><linearGradient
       x1="0"
       y1="0"
       x2="1"
       y2="0"
       gradientUnits="userSpaceOnUse"
       gradientTransform="matrix(89.693428,-129.63502,-129.63502,-89.693428,20.723675,147.42525)"
       spreadMethod="pad"
       id="linearGradient108"><stop
         style="stop-opacity:1;stop-color:#f80241"
         offset="0"
         id="stop100" /><stop
         style="stop-opacity:1;stop-color:#f80241"
         offset="0.00000082"
         id="stop102" /><stop
         style="stop-opacity:1;stop-color:#ff6173"
         offset="0.61477205"
         id="stop104" /><stop
         style="stop-opacity:1;stop-color:#ff6173"
         offset="1"
         id="stop106" /></linearGradient><clipPath
       clipPathUnits="userSpaceOnUse"
       id="clipPath118"><path
         d="m 30.52,168.251 c -0.401,-0.38 -0.801,-0.771 -1.181,-1.171 v 0 c -0.39,-0.389 -0.779,-0.79 -1.149,-1.209 v 0 c -0.38,-0.401 -0.761,-0.81 -1.121,-1.23 v 0 c -0.37,-0.411 -0.73,-0.84 -1.09,-1.26 v 0 c -0.37,-0.45 -0.749,-0.91 -1.109,-1.36 v 0 c -0.341,-0.44 -0.681,-0.87 -1,-1.311 v 0 c -0.33,-0.44 -0.661,-0.889 -0.98,-1.34 v 0 C 14.699,147.83 10.73,133.7 11.71,119.58 v 0 c 0.429,-6.299 1.789,-12.379 3.98,-18.079 v 0 c 1.779,-2.37 3.729,-4.62 5.86,-6.75 v 0 l 9.209,-9.181 c -2.69,6.261 -4.4,12.681 -4.84,19.61 v 0 c -0.399,6.32 0.24,12.171 1.641,17.611 v 0 c -2.261,5.439 -3.33,11.379 -3.05,17.49 v 0 c 0.399,8.89 3.729,17.469 9.47,24.27 v 0 c 0.42,0.5 0.85,0.98 1.289,1.45 v 0 c -0.38,1.749 -1.05,3.36 -1.839,4.88 v 0 c -1.001,-0.84 -1.97,-1.731 -2.91,-2.63"
         id="path116" /></clipPath><linearGradient
       x1="0"
       y1="0"
       x2="1"
       y2="0"
       gradientUnits="userSpaceOnUse"
       gradientTransform="matrix(-21.897812,7.7080293,7.7080293,21.897812,32.563606,128.06049)"
       spreadMethod="pad"
       id="linearGradient138"><stop
         style="stop-opacity:0;stop-color:#ffffff"
         offset="0"
         id="stop128" /><stop
         style="stop-opacity:0;stop-color:#ffffff"
         offset="0.0843488"
         id="stop130" /><stop
         style="stop-opacity:0;stop-color:#ffffff"
         offset="0.09691411"
         id="stop132" /><stop
         style="stop-opacity:1;stop-color:#ffffff"
         offset="0.800065"
         id="stop134" /><stop
         style="stop-opacity:1;stop-color:#ffffff"
         offset="1"
         id="stop136" /></linearGradient><mask
       maskUnits="userSpaceOnUse"
       x="0"
       y="0"
       width="1"
       height="1"
       id="mask140"><g
         id="g150"><g
           id="g148"><g
             id="g146"><g
               id="g144"><path
                 d="M -32768,32767 H 32767 V -32768 H -32768 Z"
                 style="fill:url(#linearGradient138);stroke:none"
                 id="path142" /></g></g></g></g></mask><linearGradient
       x1="0"
       y1="0"
       x2="1"
       y2="0"
       gradientUnits="userSpaceOnUse"
       gradientTransform="matrix(-21.897812,7.7080293,7.7080293,21.897812,32.563606,128.06049)"
       spreadMethod="pad"
       id="linearGradient166"><stop
         style="stop-opacity:1;stop-color:#f80241"
         offset="0"
         id="stop156" /><stop
         style="stop-opacity:1;stop-color:#f80241"
         offset="0.0843488"
         id="stop158" /><stop
         style="stop-opacity:1;stop-color:#f80241"
         offset="0.09691411"
         id="stop160" /><stop
         style="stop-opacity:1;stop-color:#94072c"
         offset="0.800065"
         id="stop162" /><stop
         style="stop-opacity:1;stop-color:#94072c"
         offset="1"
         id="stop164" /></linearGradient><linearGradient
       x1="0"
       y1="0"
       x2="1"
       y2="0"
       gradientUnits="userSpaceOnUse"
       gradientTransform="matrix(-190.59862,-9.1094923,-9.1094923,190.59862,201.53937,154.16878)"
       spreadMethod="pad"
       id="linearGradient190"><stop
         style="stop-opacity:1;stop-color:#f80241"
         offset="0"
         id="stop182" /><stop
         style="stop-opacity:1;stop-color:#f80241"
         offset="0.00000082"
         id="stop184" /><stop
         style="stop-opacity:1;stop-color:#ff6173"
         offset="0.61477205"
         id="stop186" /><stop
         style="stop-opacity:1;stop-color:#ff6173"
         offset="1"
         id="stop188" /></linearGradient><clipPath
       clipPathUnits="userSpaceOnUse"
       id="clipPath200"><path
         d="m 184.869,171.16 c 0.71,-4.349 0.96,-8.769 0.741,-13.189 v 0 c 5.169,-9.421 6.329,-20.46 3.49,-30.61 v 0 c -1.59,-5.68 -4.431,-11.08 -8.521,-15.75 v 0 c 0.08,-0.051 0.16,-0.1 0.24,-0.141 v 0 c 11.3,11.87 16.951,27.181 16.951,42.49 v 0 c 0,11.191 -3.021,22.381 -9.071,32.23 v 0 c -0.139,0.18 -0.28,0.361 -0.42,0.53 v 0 c -3.79,3.021 -7.889,5.561 -12.219,7.591 v 0 c 4.519,-7.09 7.479,-14.991 8.809,-23.151"
         id="path198" /></clipPath><linearGradient
       x1="0"
       y1="0"
       x2="1"
       y2="0"
       gradientUnits="userSpaceOnUse"
       gradientTransform="matrix(18.919706,1.8394159,1.8394159,-18.919706,182.7787,153.31253)"
       spreadMethod="pad"
       id="linearGradient220"><stop
         style="stop-opacity:0;stop-color:#ffffff"
         offset="0"
         id="stop210" /><stop
         style="stop-opacity:0;stop-color:#ffffff"
         offset="0.0843488"
         id="stop212" /><stop
         style="stop-opacity:0;stop-color:#ffffff"
         offset="0.09691411"
         id="stop214" /><stop
         style="stop-opacity:1;stop-color:#ffffff"
         offset="0.800065"
         id="stop216" /><stop
         style="stop-opacity:1;stop-color:#ffffff"
         offset="1"
         id="stop218" /></linearGradient><mask
       maskUnits="userSpaceOnUse"
       x="0"
       y="0"
       width="1"
       height="1"
       id="mask222"><g
         id="g232"><g
           id="g230"><g
             id="g228"><g
               id="g226"><path
                 d="M -32768,32767 H 32767 V -32768 H -32768 Z"
                 style="fill:url(#linearGradient220);stroke:none"
                 id="path224" /></g></g></g></g></mask><linearGradient
       x1="0"
       y1="0"
       x2="1"
       y2="0"
       gradientUnits="userSpaceOnUse"
       gradientTransform="matrix(18.919706,1.8394159,1.8394159,-18.919706,182.7787,153.31253)"
       spreadMethod="pad"
       id="linearGradient248"><stop
         style="stop-opacity:1;stop-color:#f80241"
         offset="0"
         id="stop238" /><stop
         style="stop-opacity:1;stop-color:#f80241"
         offset="0.0843488"
         id="stop240" /><stop
         style="stop-opacity:1;stop-color:#f80241"
         offset="0.09691411"
         id="stop242" /><stop
         style="stop-opacity:1;stop-color:#94072c"
         offset="0.800065"
         id="stop244" /><stop
         style="stop-opacity:1;stop-color:#94072c"
         offset="1"
         id="stop246" /></linearGradient></defs><sodipodi:namedview
     id="namedview4"
     pagecolor="#ffffff"
     bordercolor="#666666"
     borderopacity="1.0"
     inkscape:pageshadow="2"
     inkscape:pageopacity="0.0"
     inkscape:pagecheckerboard="0" /><g
     id="g8"
     inkscape:groupmode="layer"
     inkscape:label="heart2 (1)"
     transform="matrix(1.3333333,0,0,-1.3333333,0,286.66667)"><g
       id="g10"><g
         id="g12"><g
           id="g18"><g
             id="g20"><path
               d="m 197.77,153.96 c 0,-15.799 -6.021,-31.6 -18.05,-43.619 v 0 L 111.659,42.53 103.81,34.711 c -2.741,-2.73 -6.31,-4.12 -9.91,-4.16 v 0 c -3.721,-0.061 -7.45,1.33 -10.291,4.16 v 0 l -69.96,69.7 c 2.27,-3.44 4.921,-6.681 7.901,-9.66 v 0 L 97.449,19.14 c 5.58,-5.57 14.62,-5.57 20.201,0 v 0 l 75.909,75.621 c 12.031,12.03 18.041,27.83 18.041,43.629 v 0 c 0,15.801 -6.01,31.59 -18.041,43.621 v 0 c -1.62,1.62 -3.32,3.14 -5.079,4.549 v 0 c 6.189,-9.94 9.29,-21.27 9.29,-32.6"
               style="fill:url(#linearGradient30);stroke:none"
               id="path32" /></g></g></g></g><g
       id="g34"><g
         id="g36"
         clip-path="url(#clipPath40)"><g
           id="g42"><g
             id="g44" /><g
             id="g72"
             mask="url(#mask60)"><g
               id="g74"><path
                 d="m 107.226,38.127 c -2.74,-2.731 -6.311,-4.12 -9.911,-4.16 v 0 l 7.491,-7.47 c 5.58,-5.57 14.62,-5.57 20.2,0 v 0 l 14.969,14.909 c -5.58,-5.569 -14.799,-5.519 -20.39,0.051 v 0 l -4.51,4.489 z"
                 style="fill:url(#linearGradient84);stroke:none"
                 id="path86" /></g></g></g></g></g><g
       id="g88"><g
         id="g90"><g
           id="g96"><g
             id="g98"><path
               d="m 27.898,187.577 c -0.44,-0.33 -0.88,-0.67 -1.309,-1.02 v 0 c -0.861,-0.69 -1.71,-1.41 -2.541,-2.151 v 0 c -0.409,-0.37 -0.82,-0.749 -1.229,-1.129 v 0 c -1.221,-1.15 -2.401,-2.35 -3.541,-3.61 v 0 c -9.499,-10.49 -15.109,-24.06 -15.8,-38.19 v 0 c -0.72,-14.61 3.591,-28.6 12.141,-40.02 v 0 c 1.78,-2.37 3.729,-4.62 5.859,-6.75 v 0 l 9.21,-9.181 66.69,-66.429 c 5.58,-5.571 14.62,-5.571 20.2,0 v 0 l 14.965,14.908 c -5.58,-5.57 -14.795,-5.517 -20.385,0.052 v 0 l -4.66,4.64 -2.92,2.909 c -0.129,0.111 -0.26,0.231 -0.389,0.351 v 0 l -67.87,67.61 c -0.391,0.39 -0.781,0.79 -1.141,1.2 v 0 c -0.19,0.19 -0.36,0.38 -0.52,0.57 v 0 c -0.229,0.25 -0.46,0.51 -0.67,0.77 v 0 c -2.73,3.22 -4.91,6.81 -6.499,10.64 v 0 c -2.261,5.44 -3.331,11.38 -3.05,17.49 v 0 c 0.399,8.89 3.729,17.47 9.469,24.27 v 0 c 0.42,0.5 0.85,0.98 1.29,1.45 v 0 c -0.38,1.75 -1.049,3.36 -1.839,4.88 v 0 c -3.321,6.32 -8.811,10.99 -4.131,17.719 v 0 c -0.45,-0.319 -0.89,-0.65 -1.33,-0.979"
               style="fill:url(#linearGradient108);stroke:none"
               id="path110" /></g></g></g></g><g
       id="g112"><g
         id="g114"
         clip-path="url(#clipPath118)"><g
           id="g120"><g
             id="g122" /><g
             id="g152"
             mask="url(#mask140)"><g
               id="g154"><path
                 d="m 30.52,168.251 c -0.401,-0.38 -0.801,-0.771 -1.181,-1.171 v 0 c -0.39,-0.389 -0.779,-0.79 -1.149,-1.209 v 0 c -0.38,-0.401 -0.761,-0.81 -1.121,-1.23 v 0 c -0.37,-0.411 -0.73,-0.84 -1.09,-1.26 v 0 c -0.37,-0.45 -0.749,-0.91 -1.109,-1.36 v 0 c -0.341,-0.44 -0.681,-0.87 -1,-1.311 v 0 c -0.33,-0.44 -0.661,-0.889 -0.98,-1.34 v 0 C 14.699,147.83 10.73,133.7 11.71,119.58 v 0 c 0.429,-6.299 1.789,-12.379 3.98,-18.079 v 0 c 1.779,-2.37 3.729,-4.62 5.86,-6.75 v 0 l 9.209,-9.181 c -2.69,6.261 -4.4,12.681 -4.84,19.61 v 0 c -0.399,6.32 0.24,12.171 1.641,17.611 v 0 c -2.261,5.439 -3.33,11.379 -3.05,17.49 v 0 c 0.399,8.89 3.729,17.469 9.47,24.27 v 0 c 0.42,0.5 0.85,0.98 1.289,1.45 v 0 c -0.38,1.749 -1.05,3.36 -1.839,4.88 v 0 c -1.001,-0.84 -1.97,-1.731 -2.91,-2.63"
                 style="fill:url(#linearGradient166);stroke:none"
                 id="path168" /></g></g></g></g></g><g
       id="g170"><g
         id="g172"><g
           id="g178"><g
             id="g180"><path
               d="m 109.609,185.08 c -1.18,-1.019 -2.939,-1.019 -4.12,0 v 0 c -11.2,9.711 -25.359,15.001 -40.33,15.001 v 0 c -0.82,0 -1.63,-0.021 -2.44,-0.051 v 0 c -0.399,-0.01 -0.81,-0.029 -1.209,-0.059 v 0 c -0.54,-0.031 -1.071,-0.06 -1.61,-0.11 v 0 c -0.421,-0.04 -0.84,-0.071 -1.261,-0.12 v 0 c -0.53,-0.051 -1.07,-0.12 -1.6,-0.19 v 0 c -1.07,-0.141 -2.13,-0.301 -3.179,-0.5 v 0 c -1.061,-0.191 -2.111,-0.41 -3.15,-0.66 v 0 c -0.521,-0.13 -1.041,-0.261 -1.551,-0.4 v 0 c -0.519,-0.13 -1.03,-0.281 -1.539,-0.43 v 0 c -0.461,-0.131 -0.921,-0.28 -1.381,-0.42 v 0 c -0.049,-0.02 -0.1,-0.04 -0.15,-0.05 v 0 c -0.509,-0.171 -1.01,-0.34 -1.509,-0.51 v 0 c -1.54,-0.54 -3.06,-1.151 -4.551,-1.82 v 0 c -0.45,-0.201 -0.9,-0.401 -1.35,-0.62 v 0 c -0.409,-0.19 -0.82,-0.391 -1.23,-0.601 v 0 c -0.12,-0.06 -0.239,-0.119 -0.36,-0.179 v 0 c -0.339,-0.171 -0.67,-0.351 -1,-0.531 v 0 c -0.249,-0.129 -0.489,-0.259 -0.74,-0.399 v 0 c -0.62,-0.34 -1.229,-0.691 -1.829,-1.06 v 0 c -0.201,-0.11 -0.4,-0.231 -0.601,-0.36 v 0 c -0.399,-0.241 -0.8,-0.491 -1.189,-0.75 v 0 c -1.281,-0.83 -2.54,-1.71 -3.761,-2.641 v 0 c -0.44,-0.329 -0.88,-0.669 -1.31,-1.019 v 0 c -0.429,-0.341 -0.86,-0.691 -1.28,-1.061 v 0 c -0.43,-0.36 -0.85,-0.72 -1.259,-1.089 v 0 c -0.41,-0.37 -0.821,-0.75 -1.23,-1.13 v 0 c -0.421,-0.4 -0.851,-0.81 -1.26,-1.22 v 0 c -0.391,-0.391 -0.781,-0.78 -1.15,-1.18 v 0 c -0.38,-0.401 -0.761,-0.8 -1.13,-1.211 v 0 C 9.85,169.221 4.239,155.65 3.55,141.52 v 0 C 2.89,128.131 6.459,115.26 13.649,104.411 v 0 l 0.01,-0.011 c 0.28,-0.429 0.571,-0.85 0.861,-1.269 v 0 c 0.289,-0.42 0.6,-0.84 0.9,-1.26 v 0 c 0.37,-0.499 0.749,-1 1.14,-1.49 v 0 c 0.279,-0.36 0.57,-0.73 0.869,-1.08 v 0 c 1.29,-1.58 2.661,-3.09 4.121,-4.55 v 0 l 1.62,-1.61 c -0.491,1.059 -0.961,2.129 -1.401,3.18 v 0 c -4.07,9.629 -6.379,19.029 -5.809,29.219 v 0 c 0.969,17.27 9.139,30.12 19.309,40.461 v 0 c 0.03,0.039 0.07,0.08 0.11,0.119 v 0 c 0.011,0.011 0.031,0.031 0.04,0.031 v 0 c 8.631,9.23 20.771,13.889 33.481,12.769 v 0 c 9.68,-0.859 18.669,-5.389 25.54,-12.25 v 0 l 6.009,-6.019 c 3.92,-3.921 10.281,-3.921 14.2,0.01 v 0 l 6.04,6.03 c 6.76,6.76 15.59,11.25 25.111,12.19 v 0 c 1.39,0.14 2.769,0.199 4.149,0.199 v 0 c 10.86,0 21.081,-4.23 28.76,-11.919 v 0 c 0.131,-0.13 0.26,-0.27 0.381,-0.4 v 0 c 2.619,-2.69 4.79,-5.65 6.52,-8.79 v 0 c 5.169,-9.421 6.329,-20.46 3.49,-30.61 v 0 c -1.59,-5.68 -4.431,-11.08 -8.521,-15.75 v 0 c 0.08,-0.051 0.16,-0.1 0.24,-0.141 v 0 c 11.3,11.87 16.951,27.181 16.951,42.49 v 0 c 0,11.191 -3.021,22.381 -9.071,32.23 v 0 c -0.069,0.131 -0.139,0.25 -0.219,0.37 v 0 c -0.07,0.051 -0.131,0.111 -0.201,0.16 v 0 c -3.79,3.021 -7.889,5.561 -12.219,7.591 v 0 c -8.07,3.78 -16.941,5.77 -26.121,5.77 v 0 c -14.97,0 -29.129,-5.29 -40.33,-15.001"
               style="fill:url(#linearGradient190);stroke:none"
               id="path192" /></g></g></g></g><g
       id="g194"><g
         id="g196"
         clip-path="url(#clipPath200)"><g
           id="g202"><g
             id="g204" /><g
             id="g234"
             mask="url(#mask222)"><g
               id="g236"><path
                 d="m 184.869,171.16 c 0.71,-4.349 0.96,-8.769 0.741,-13.189 v 0 c 5.169,-9.421 6.329,-20.46 3.49,-30.61 v 0 c -1.59,-5.68 -4.431,-11.08 -8.521,-15.75 v 0 c 0.08,-0.051 0.16,-0.1 0.24,-0.141 v 0 c 11.3,11.87 16.951,27.181 16.951,42.49 v 0 c 0,11.191 -3.021,22.381 -9.071,32.23 v 0 c -0.139,0.18 -0.28,0.361 -0.42,0.53 v 0 c -3.79,3.021 -7.889,5.561 -12.219,7.591 v 0 c 4.519,-7.09 7.479,-14.991 8.809,-23.151"
                 style="fill:url(#linearGradient248);stroke:none"
                 id="path250" /></g></g></g></g></g></g></svg>
