<svg width="437" height="469" xmlns="http://www.w3.org/2000/svg" xmlns:xlink="http://www.w3.org/1999/xlink" xml:space="preserve" overflow="hidden"><defs><clipPath id="clip0"><rect x="0" y="0" width="437" height="469"/></clipPath></defs><g clip-path="url(#clip0)"><path d="M1354.84 280.07 1354.84 126.658C1353.46 115.175 1361.65 104.748 1373.14 103.368 1374.79 103.169 1376.47 103.169 1378.12 103.367L1387.66 103.367C1399.14 101.987 1409.57 110.176 1410.95 121.659 1411.15 123.32 1411.15 124.998 1410.95 126.658L1410.95 254.085 1450.59 254.085C1462.07 252.704 1472.5 260.894 1473.88 272.377 1474.08 274.037 1474.08 275.716 1473.88 277.376L1473.88 280.081C1475.26 291.564 1467.07 301.992 1455.59 303.373 1453.93 303.572 1452.25 303.572 1450.59 303.373L1378.12 303.373C1366.64 304.747 1356.22 296.551 1354.84 285.067 1354.64 283.411 1354.64 281.737 1354.84 280.081" fill="#FFFFFF" fill-rule="nonzero" fill-opacity="1" transform="matrix(1 0 0 1.01957 -1097.72 -84.6248)"/><path d="M0 1538.92 0 1385.49C-1.37965 1374.01 6.81086 1363.58 18.294 1362.2 19.95 1362 21.6238 1362 23.2799 1362.2L61.6672 1362.2C142.316 1362.2 172.634 1398.4 172.634 1462.39 172.634 1525.07 142.316 1562.2 61.6672 1562.2L23.2799 1562.2C11.796 1563.57 1.37322 1555.37-1.15872e-06 1543.89-0.197513 1542.24-0.197513 1540.57-1.15872e-06 1538.92M116.056 1461.92C116.056 1428.87 106.084 1411.02 63.6272 1411.02L55.9245 1411.02 55.9245 1512.92 64.1086 1512.92C106.095 1512.92 116.067 1495.27 116.067 1461.92" fill="#FFFFFF" fill-rule="nonzero" fill-opacity="1" transform="matrix(1 0 0 1.01957 0 -1124.53)"/><path d="M72.3729 27.0625 166.364 1.84543C195.372-5.92687 225.19 11.2835 232.971 40.29L258.188 134.281C265.961 163.289 248.75 193.107 219.744 200.888L125.753 226.105C96.7442 233.878 66.9261 216.667 59.1454 187.661L33.9284 93.6699C26.1561 64.6612 43.3665 34.8432 72.3729 27.0625" fill="#0053A0" fill-rule="nonzero" fill-opacity="1" transform="matrix(1 0 0 1.01957 -25.9736 0.768852)"/><path d="M1237.03 1406.01C1216.51 1376.74 1176.15 1369.61 1146.84 1390.08L1130.79 1401.3 1119.57 1385.25C1099.05 1355.95 1058.67 1348.82 1029.37 1369.34 1000.06 1389.85 992.937 1430.24 1013.45 1459.54L1059.4 1525.25C1060.17 1526.5 1060.9 1527.63 1061.7 1528.69 1071.21 1542.36 1085.67 1551.79 1102.02 1555L1103.67 1555.31C1120.58 1558.29 1137.98 1554.47 1152.08 1544.67 1153.22 1543.89 1154.26 1543.08 1155.31 1542.25L1155.83 1541.86 1221.1 1496.2C1250.37 1475.66 1257.5 1435.32 1237.03 1406" fill="#AE1921" fill-rule="nonzero" fill-opacity="1" transform="matrix(1 0 0 1.01957 -811.725 -1120.91)"/></g></svg>