<svg width="355" height="380" xmlns="http://www.w3.org/2000/svg" xmlns:xlink="http://www.w3.org/1999/xlink" xml:space="preserve" overflow="hidden"><defs><clipPath id="clip0"><rect x="233" y="109" width="355" height="380"/></clipPath><clipPath id="clip1"><rect x="234" y="110" width="354" height="379"/></clipPath><clipPath id="clip2"><rect x="234" y="110" width="354" height="379"/></clipPath><clipPath id="clip3"><rect x="234" y="110" width="354" height="379"/></clipPath><clipPath id="clip4"><rect x="234" y="110" width="354" height="379"/></clipPath></defs><g clip-path="url(#clip0)" transform="translate(-233 -109)"><g clip-path="url(#clip1)"><g clip-path="url(#clip2)"><g clip-path="url(#clip3)"><g clip-path="url(#clip4)"><path d="M1097.52 226.876 1097.52 102.602C1096.4 93.2998 1103.03 84.853 1112.34 83.7353 1113.68 83.5742 1115.03 83.5738 1116.37 83.7344L1124.1 83.7343C1133.4 82.6161 1141.85 89.2504 1142.97 98.5525 1143.13 99.8975 1143.13 101.257 1142.97 102.602L1142.97 205.826 1175.08 205.826C1184.38 204.708 1192.83 211.342 1193.94 220.644 1194.11 221.989 1194.11 223.349 1193.94 224.694L1193.94 226.885C1195.06 236.187 1188.43 244.634 1179.13 245.753 1177.78 245.914 1176.42 245.914 1175.08 245.753L1116.37 245.753C1107.07 246.866 1098.63 240.227 1097.52 230.924 1097.35 229.582 1097.35 228.226 1097.52 226.885" fill="#2E2E2E" fill-rule="nonzero" fill-opacity="1" transform="matrix(1 0 0 1.01709 -655.229 41.6145)"/><path d="M0 1246.63 0 1122.34C-1.11761 1113.04 5.51727 1104.6 14.8194 1103.48 16.1609 1103.32 17.5168 1103.32 18.8583 1103.48L49.9546 1103.48C115.286 1103.48 139.845 1132.8 139.845 1184.64 139.845 1235.41 115.286 1265.49 49.9546 1265.49L18.8583 1265.49C9.55557 1266.6 1.1124 1259.96-9.38641e-07 1250.66-0.159999 1249.32-0.159999 1247.97-9.38641e-07 1246.63M94.0131 1184.26C94.0131 1157.48 85.935 1143.02 51.5424 1143.02L45.3027 1143.02 45.3027 1225.57 51.9324 1225.57C85.9442 1225.57 94.0224 1211.27 94.0224 1184.26" fill="#2E2E2E" fill-rule="nonzero" fill-opacity="1" transform="matrix(1 0 0 1.01709 234 -798.735)"/><path d="M58.627 21.9225 134.766 1.49492C158.265-4.80117 182.42 9.14044 188.723 32.6376L209.15 108.777C215.446 132.276 201.505 156.43 178.007 162.733L101.868 183.161C78.3694 189.457 54.2148 175.515 47.9119 152.018L27.4843 75.879C21.1882 52.38 35.1298 28.2254 58.627 21.9225" fill="#0053A0" fill-rule="nonzero" fill-opacity="1" transform="matrix(1 0 0 1.01709 212.96 110.621)"/><path d="M1002.08 1138.97C985.453 1115.25 952.764 1109.48 929.017 1126.06L916.017 1135.15 906.927 1122.15C890.31 1098.41 857.595 1092.64 833.857 1109.26 810.119 1125.87 804.347 1158.59 820.964 1182.33L858.189 1235.56C858.811 1236.57 859.405 1237.48 860.046 1238.35 867.757 1249.42 879.47 1257.06 892.711 1259.66L894.049 1259.91C907.744 1262.32 921.84 1259.23 933.26 1251.29 934.189 1250.66 935.034 1250 935.878 1249.33L936.306 1249.01 989.176 1212.02C1012.89 1195.39 1018.66 1162.7 1002.08 1138.96" fill="#AE1921" fill-rule="nonzero" fill-opacity="1" transform="matrix(1 0 0 1.01709 -423.553 -795.807)"/></g></g></g></g></g></svg>